<?xml version="1.0" encoding="UTF-8" standalone="no"?>
<!DOCTYPE svg PUBLIC "-//W3C//DTD SVG 1.1//EN"
 "http://www.w3.org/Graphics/SVG/1.1/DTD/svg11.dtd">
<!-- Generated by graphviz version 2.50.0 (20211204.2007)
 -->
<!-- Pages: 1 -->
<svg width="132pt" height="139pt"
 viewBox="0.00 0.00 132.00 139.00" xmlns="http://www.w3.org/2000/svg" xmlns:xlink="http://www.w3.org/1999/xlink">
<g id="graph0" class="graph" transform="scale(1 1) rotate(0) translate(4 135)">
<polygon fill="white" stroke="transparent" points="-4,4 -4,-135 128,-135 128,4 -4,4"/>
<text text-anchor="start" x="8" y="-8.8" font-family="Times New Roman,serif" font-weight="bold" font-size="14.00">Sample Graph #1</text>
<!-- Foo -->
<g id="node1" class="node">
<title>Foo</title>
<ellipse fill="none" stroke="black" cx="62" cy="-113" rx="28.7" ry="18"/>
<text text-anchor="middle" x="62" y="-109.3" font-family="Times New Roman,serif" font-size="14.00">Foo!</text>
</g>
<!-- BAR -->
<g id="node2" class="node">
<title>BAR</title>
<ellipse fill="none" stroke="black" stroke-width="1.5" cx="62" cy="-41" rx="29.5" ry="18"/>
<text text-anchor="middle" x="62" y="-37.3" font-family="Times New Roman,serif" font-size="14.00" fill="red">BAR</text>
</g>
<!-- Foo&#45;&gt;BAR -->
<g id="edge1" class="edge">
<title>Foo&#45;&gt;BAR</title>
<path fill="none" stroke="black" d="M56.12,-95.05C55.29,-87.23 55.05,-77.75 55.41,-68.98"/>
<polygon fill="black" stroke="black" points="58.92,-69.01 56.14,-58.79 51.93,-68.51 58.92,-69.01"/>
</g>
<!-- BAR&#45;&gt;Foo -->
<g id="edge2" class="edge">
<title>BAR&#45;&gt;Foo</title>
<path fill="none" stroke="black" d="M67.86,-58.79C68.7,-66.59 68.94,-76.07 68.6,-84.85"/>
<polygon fill="black" stroke="black" points="65.09,-84.83 67.88,-95.05 72.07,-85.33 65.09,-84.83"/>
</g>
</g>
</svg>
