<?xml version="1.0" encoding="UTF-8" standalone="no"?>
<!DOCTYPE svg PUBLIC "-//W3C//DTD SVG 1.1//EN"
 "http://www.w3.org/Graphics/SVG/1.1/DTD/svg11.dtd">
<!-- Generated by graphviz version 2.50.0 (20211204.2007)
 -->
<!-- Pages: 1 -->
<svg width="422pt" height="140pt"
 viewBox="0.00 0.00 422.00 140.00" xmlns="http://www.w3.org/2000/svg" xmlns:xlink="http://www.w3.org/1999/xlink">
<g id="graph0" class="graph" transform="scale(1 1) rotate(0) translate(4 136)">
<polygon fill="white" stroke="transparent" points="-4,4 -4,-136 418,-136 418,4 -4,4"/>
<text text-anchor="middle" x="207" y="-7.8" font-family="Times New Roman,serif" font-size="14.00">Highlight graph entry points</text>
<!-- a -->
<g id="node1" class="node">
<title>a</title>
<ellipse fill="none" stroke="black" cx="117" cy="-41" rx="27" ry="18"/>
<text text-anchor="middle" x="117" y="-37.3" font-family="Times New Roman,serif" font-size="14.00">a</text>
</g>
<!-- b -->
<g id="node2" class="node">
<title>b</title>
<ellipse fill="none" stroke="black" cx="387" cy="-68" rx="27" ry="18"/>
<text text-anchor="middle" x="387" y="-64.3" font-family="Times New Roman,serif" font-size="14.00">b</text>
</g>
<!-- a&#45;&gt;b -->
<g id="edge1" class="edge">
<title>a&#45;&gt;b</title>
<path fill="none" stroke="black" d="M143.71,-37.67C183.04,-33.33 260.28,-27.73 324,-41 335.06,-43.3 346.57,-47.69 356.62,-52.27"/>
<polygon fill="black" stroke="black" points="355.23,-55.48 365.76,-56.66 358.26,-49.17 355.23,-55.48"/>
</g>
<!-- e -->
<g id="node5" class="node">
<title>e</title>
<ellipse fill="none" stroke="black" cx="207" cy="-87" rx="27" ry="18"/>
<text text-anchor="middle" x="207" y="-83.3" font-family="Times New Roman,serif" font-size="14.00">e</text>
</g>
<!-- a&#45;&gt;e -->
<g id="edge2" class="edge">
<title>a&#45;&gt;e</title>
<path fill="none" stroke="black" d="M138.85,-51.9C150.03,-57.74 164,-65.04 176.29,-71.47"/>
<polygon fill="black" stroke="black" points="174.81,-74.65 185.29,-76.18 178.05,-68.44 174.81,-74.65"/>
</g>
<!-- c -->
<g id="node3" class="node">
<title>c</title>
<ellipse fill="beige" stroke="darkgreen" cx="117" cy="-114" rx="27" ry="18"/>
<text text-anchor="middle" x="117" y="-110.3" font-family="Times New Roman,serif" font-size="14.00" fill="darkgreen">c</text>
</g>
<!-- c&#45;&gt;b -->
<g id="edge3" class="edge">
<title>c&#45;&gt;b</title>
<path fill="none" stroke="black" d="M144.34,-115.55C167.91,-116.57 203.35,-117.2 234,-114 274.66,-109.75 285.06,-107.45 324,-95 334.48,-91.65 345.6,-87.13 355.49,-82.75"/>
<polygon fill="black" stroke="black" points="357.24,-85.8 364.89,-78.46 354.34,-79.43 357.24,-85.8"/>
</g>
<!-- c&#45;&gt;e -->
<g id="edge4" class="edge">
<title>c&#45;&gt;e</title>
<path fill="none" stroke="black" d="M142.05,-106.62C151.44,-103.74 162.36,-100.39 172.5,-97.28"/>
<polygon fill="black" stroke="black" points="173.75,-100.55 182.29,-94.28 171.7,-93.86 173.75,-100.55"/>
</g>
<!-- d -->
<g id="node4" class="node">
<title>d</title>
<ellipse fill="beige" stroke="darkgreen" cx="27" cy="-41" rx="27" ry="18"/>
<text text-anchor="middle" x="27" y="-37.3" font-family="Times New Roman,serif" font-size="14.00" fill="darkgreen">d</text>
</g>
<!-- d&#45;&gt;a -->
<g id="edge5" class="edge">
<title>d&#45;&gt;a</title>
<path fill="none" stroke="black" d="M54.4,-41C62.39,-41 71.31,-41 79.82,-41"/>
<polygon fill="black" stroke="black" points="79.92,-44.5 89.92,-41 79.92,-37.5 79.92,-44.5"/>
</g>
<!-- f -->
<g id="node6" class="node">
<title>f</title>
<ellipse fill="none" stroke="black" cx="297" cy="-68" rx="27" ry="18"/>
<text text-anchor="middle" x="297" y="-64.3" font-family="Times New Roman,serif" font-size="14.00">f</text>
</g>
<!-- e&#45;&gt;f -->
<g id="edge6" class="edge">
<title>e&#45;&gt;f</title>
<path fill="none" stroke="black" d="M232.98,-81.61C241.71,-79.72 251.68,-77.57 261.08,-75.54"/>
<polygon fill="black" stroke="black" points="261.92,-78.94 270.96,-73.41 260.44,-72.1 261.92,-78.94"/>
</g>
<!-- f&#45;&gt;a -->
<g id="edge8" class="edge">
<title>f&#45;&gt;a</title>
<path fill="none" stroke="black" d="M270.54,-64.14C239.9,-59.49 188.25,-51.66 153.65,-46.41"/>
<polygon fill="black" stroke="black" points="153.91,-42.91 143.5,-44.87 152.87,-49.83 153.91,-42.91"/>
</g>
<!-- f&#45;&gt;b -->
<g id="edge7" class="edge">
<title>f&#45;&gt;b</title>
<path fill="none" stroke="black" d="M324.4,-68C332.39,-68 341.31,-68 349.82,-68"/>
<polygon fill="black" stroke="black" points="349.92,-71.5 359.92,-68 349.92,-64.5 349.92,-71.5"/>
</g>
</g>
</svg>
