<?xml version="1.0" encoding="UTF-8" standalone="no"?>
<!DOCTYPE svg PUBLIC "-//W3C//DTD SVG 1.1//EN"
 "http://www.w3.org/Graphics/SVG/1.1/DTD/svg11.dtd">
<!-- Generated by graphviz version 2.50.0 (20211204.2007)
 -->
<!-- Pages: 1 -->
<svg width="913pt" height="61pt"
 viewBox="0.00 0.00 913.00 61.00" xmlns="http://www.w3.org/2000/svg" xmlns:xlink="http://www.w3.org/1999/xlink">
<g id="graph0" class="graph" transform="scale(1 1) rotate(0) translate(4 57)">
<polygon fill="white" stroke="transparent" points="-4,4 -4,-57 909,-57 909,4 -4,4"/>
<!-- Shorttext -->
<g id="node1" class="node">
<title>Shorttext</title>
<polygon fill="none" stroke="black" points="71,-44.5 0,-44.5 0,-8.5 71,-8.5 71,-44.5"/>
<text text-anchor="middle" x="35.5" y="-22.8" font-family="Times New Roman,serif" font-size="14.00">Short text</text>
</g>
<!-- Longlabelthatwillnbewrappedintonmultiplelines -->
<g id="node2" class="node">
<title>Longlabelthatwillnbewrappedintonmultiplelines</title>
<polygon fill="none" stroke="black" points="229,-53 107,-53 107,0 229,0 229,-53"/>
<text text-anchor="middle" x="168" y="-37.8" font-family="Times New Roman,serif" font-size="14.00">Long label that will</text>
<text text-anchor="middle" x="168" y="-22.8" font-family="Times New Roman,serif" font-size="14.00">be wrapped into</text>
<text text-anchor="middle" x="168" y="-7.8" font-family="Times New Roman,serif" font-size="14.00">multiple lines</text>
</g>
<!-- Shorttext&#45;&gt;Longlabelthatwillnbewrappedintonmultiplelines -->
<g id="edge1" class="edge">
<title>Shorttext&#45;&gt;Longlabelthatwillnbewrappedintonmultiplelines</title>
<path fill="none" stroke="black" d="M71.13,-26.5C79.14,-26.5 87.95,-26.5 96.87,-26.5"/>
<polygon fill="black" stroke="black" points="96.97,-30 106.97,-26.5 96.97,-23 96.97,-30"/>
</g>
<!-- CantWrapSpecialCamelCaseWordsWithoutSpaces -->
<g id="node3" class="node">
<title>CantWrapSpecialCamelCaseWordsWithoutSpaces</title>
<polygon fill="none" stroke="black" points="567,-44.5 265,-44.5 265,-8.5 567,-8.5 567,-44.5"/>
<text text-anchor="middle" x="416" y="-22.8" font-family="Times New Roman,serif" font-size="14.00">CantWrapSpecialCamelCaseWordsWithoutSpaces</text>
</g>
<!-- Longlabelthatwillnbewrappedintonmultiplelines&#45;&gt;CantWrapSpecialCamelCaseWordsWithoutSpaces -->
<g id="edge2" class="edge">
<title>Longlabelthatwillnbewrappedintonmultiplelines&#45;&gt;CantWrapSpecialCamelCaseWordsWithoutSpaces</title>
<path fill="none" stroke="black" d="M229.18,-26.5C237.24,-26.5 245.79,-26.5 254.63,-26.5"/>
<polygon fill="black" stroke="black" points="254.72,-30 264.72,-26.5 254.72,-23 254.72,-30"/>
</g>
<!-- CantWrapSpecialCamelCaseWordsWithoutSpacesnbutcanwrapnelsewhere -->
<g id="node4" class="node">
<title>CantWrapSpecialCamelCaseWordsWithoutSpacesnbutcanwrapnelsewhere</title>
<polygon fill="none" stroke="black" points="905,-53 603,-53 603,0 905,0 905,-53"/>
<text text-anchor="middle" x="754" y="-37.8" font-family="Times New Roman,serif" font-size="14.00">CantWrapSpecialCamelCaseWordsWithoutSpaces</text>
<text text-anchor="middle" x="754" y="-22.8" font-family="Times New Roman,serif" font-size="14.00">but can wrap</text>
<text text-anchor="middle" x="754" y="-7.8" font-family="Times New Roman,serif" font-size="14.00">elsewhere</text>
</g>
<!-- CantWrapSpecialCamelCaseWordsWithoutSpaces&#45;&gt;CantWrapSpecialCamelCaseWordsWithoutSpacesnbutcanwrapnelsewhere -->
<g id="edge3" class="edge">
<title>CantWrapSpecialCamelCaseWordsWithoutSpaces&#45;&gt;CantWrapSpecialCamelCaseWordsWithoutSpacesnbutcanwrapnelsewhere</title>
<path fill="none" stroke="black" d="M567.31,-26.5C575.7,-26.5 584.14,-26.5 592.56,-26.5"/>
<polygon fill="black" stroke="black" points="592.81,-30 602.81,-26.5 592.81,-23 592.81,-30"/>
</g>
</g>
</svg>
